<?xml version="1.0" encoding="UTF-8"?>
<svg width="145px" height="40px" viewBox="0 0 145 40" version="1.1" xmlns="http://www.w3.org/2000/svg" xmlns:xlink="http://www.w3.org/1999/xlink">
    <!-- Generator: Sketch 47.1 (45422) - http://www.bohemiancoding.com/sketch -->
    <title>english-grant-connect-logos_reverse-white-version_vector-(default-for-printing)_381x88</title>
    <desc>Created with Sketch.</desc>
    <defs>
        <filter x="-0.5%" y="-8.3%" width="101.0%" height="123.3%" filterUnits="objectBoundingBox" id="filter-1">
            <feMerge>
                <feMergeNode in="SourceGraphic"></feMergeNode>
            </feMerge>
        </filter>
    </defs>
    <g id="Symbols" stroke="none" stroke-width="1" fill="none" fill-rule="evenodd">
        <g id="Global-Nav" transform="translate(-76.000000, -12.000000)" fill="#806416">
            <g filter="url(#filter-1)" id="english-grant-connect-logos_reverse-white-version_vector-(default-for-printing)_381x88">
                <g transform="translate(80.000000, 14.000000)">
                    <path d="M62,14.112303 C61.7578965,14.3316354 60.1953365,16 56.5487018,16 C52.8838102,16 50,13.6067598 50,9.98310062 C50,6.35944148 52.8838102,4 56.530048,4 C59.8230528,4 61.2371755,5.5669683 61.7209856,6.02217295 L60.4930048,7.05051837 C59.7301803,6.24150536 58.5395072,5.39869359 56.530048,5.39869359 C53.8883413,5.39869359 51.8606251,7.1181159 51.8606251,9.98310062 C51.8606251,12.8480853 53.9629568,14.5675076 56.6419712,14.5675076 C59.3023317,14.5675076 60.2512982,13.5053635 60.2512982,13.5053635 L60.2512982,10.9273087 L56.7908054,10.9273087 L56.7908054,9.5954935 L62,9.5954935 L62,14.112303" id="Fill-1"></path>
                    <path d="M70.4614578,5.80905268 C69.8653417,5.40910215 69.1535306,5.37422706 68.2304326,5.37422706 L66.8650681,5.37422706 L66.8650681,9.44348256 L68.2304326,9.44348256 C69.1535306,9.44348256 69.8653417,9.40860747 70.4614578,9.0264655 C71.057574,8.62577294 71.3074258,8.13900569 71.3074258,7.40885481 C71.3074258,6.69577047 71.057574,6.19119466 70.4614578,5.80905268 M74,16 L71.7501026,16 L68.2882801,10.8347762 L66.8650681,10.8347762 L66.8650681,16 L65,16 L65,4 L68.7498291,4 C70.0766285,4 71.1539864,4.27825872 71.9421069,4.83477616 C72.7306377,5.40910215 73.2307517,6.27801138 73.2307517,7.37397972 C73.2307517,9.47835766 71.6151251,10.4177591 70.211606,10.6611427 L74,16" id="Fill-2"></path>
                    <path d="M83.185284,11.4741969 L80.9444938,6.0982798 L78.7037037,11.4741969 L83.185284,11.4741969 Z M87,16 L84.9994074,16 L83.684642,12.8784759 L78.2031605,12.8784759 L76.8883951,16 L75,16 L80.2037531,4 L81.777284,4 L87,16 L87,16 Z" id="Fill-3"></path>
                    <path d="M98,16 L96.38161,16 L89.6013084,6.43457828 C89.6013084,6.43457828 89.6354716,8.05218897 89.6354716,9.617116 L89.6354716,16 L88,16 L88,4 L89.7375977,4 L96.3986916,13.4259213 C96.3986916,13.4259213 96.38161,11.947811 96.38161,10.3650754 L96.38161,4 L98,4 L98,16" id="Fill-4"></path>
                    <polyline id="Fill-5" points="110 5.40910215 106.408059 5.40910215 106.408059 16 104.611299 16 104.611299 5.40910215 101 5.40910215 101 4 110 4 110 5.40910215"></polyline>
                    <path d="M60,30.2812968 C59.2891396,31.0903098 58,32 55.8346262,32 C52.5123413,32 50,29.6240187 50,25.9996404 C50,22.3759813 52.5620592,20 55.8346262,20 C57.9668547,20 59.2559944,20.9096902 59.8843441,21.5338887 L59.2066291,22.8484449 C58.7602257,22.2753041 57.4876587,21.4324924 55.9009168,21.4324924 C53.4379408,21.4324924 51.6530324,23.236052 51.6530324,25.9665608 C51.6530324,28.6963505 53.4545134,30.4999101 55.9009168,30.4999101 C57.4047955,30.4999101 58.5620592,29.9102295 59.3057123,29.0846767 L60,30.2812968" id="Fill-6"></path>
                    <path d="M69.0001798,21.4159525 C66.6239101,21.4159525 64.6686742,23.1181159 64.6686742,25.9665608 C64.6686742,28.7977467 66.6404494,30.5171691 69.0001798,30.5171691 C71.3764494,30.5171691 73.3316854,28.7977467 73.3316854,25.9665608 C73.3316854,23.1181159 71.3764494,21.4159525 69.0001798,21.4159525 M69.0001798,32 C65.730427,32 63,29.7246959 63,25.9996404 C63,22.2753041 65.730427,20 69.0001798,20 C72.2699326,20 75,22.2753041 75,25.9996404 C75,29.7246959 72.2699326,32 69.0001798,32" id="Fill-7"></path>
                    <path d="M88,32 L86.38161,32 L79.6013084,22.4345783 C79.6013084,22.4345783 79.6354716,24.052189 79.6354716,25.617116 L79.6354716,32 L78,32 L78,20 L79.7375977,20 L86.3986916,29.4259213 C86.3986916,29.4259213 86.38161,27.947811 86.38161,26.3650754 L86.38161,20 L88,20 L88,32" id="Fill-8"></path>
                    <path d="M102,32 L100.381669,32 L93.6016136,22.4345783 C93.6016136,22.4345783 93.6354121,24.052189 93.6354121,25.617116 L93.6354121,32 L92,32 L92,20 L93.737898,20 L100.39875,29.4259213 C100.39875,29.4259213 100.381669,27.947811 100.381669,26.3650754 L100.381669,20 L102,20 L102,32" id="Fill-9"></path>
                    <polyline id="Fill-10" points="114 32 107 32 107 20 113.864088 20 113.864088 21.4091022 108.647976 21.4091022 108.647976 24.9915904 113.574868 24.9915904 113.574868 26.3999505 108.647976 26.3999505 108.647976 30.5738313 114 30.5738313 114 32"></polyline>
                    <path d="M127,30.2812968 C126.289165,31.0903098 125.000071,32 122.834421,32 C119.512253,32 117,29.6240187 117,25.9996404 C117,22.3759813 119.562321,20 122.834421,20 C124.966926,20 126.255668,20.9096902 126.884348,21.5338887 L126.206657,22.8484449 C125.760269,22.2753041 124.487747,21.4324924 122.901061,21.4324924 C120.43782,21.4324924 118.653327,23.236052 118.653327,25.9665608 C118.653327,28.6963505 120.454392,30.4999101 122.901061,30.4999101 C124.404534,30.4999101 125.56211,29.9102295 126.305737,29.0846767 L127,30.2812968" id="Fill-11"></path>
                    <polyline id="Fill-12" points="137 21.4091022 133.407664 21.4091022 133.407664 32 131.611694 32 131.611694 21.4091022 128 21.4091022 128 20 137 20 137 21.4091022"></polyline>
                    <polyline id="Fill-13" points="13 24 24.4996301 4 36 24 13 24"></polyline>
                    <path d="M32.9009805,25.3803453 L28.0996023,25.3803453 L29.4512214,27.7652217 L6.54882758,27.7652217 L17.9996562,7.56073742 L19.4404011,10.1028049 L21.8412744,5.86690114 L18.7737988,0.455253671 C18.4298172,-0.151751224 17.5698634,-0.151751224 17.2258819,0.455253671 L0.121086953,30.6340514 C-0.222894583,31.2406811 0.206898193,32 0.895229553,32 L35.1048194,32 C35.7927825,32 36.2229435,31.2406811 35.878962,30.6340514 L32.9009805,25.3803453" id="Fill-14"></path>
                </g>
            </g>
        </g>
    </g>
</svg>