<?xml version="1.0" encoding="UTF-8"?>
<svg width="137px" height="28px" viewBox="0 0 137 28" version="1.1" xmlns="http://www.w3.org/2000/svg" xmlns:xlink="http://www.w3.org/1999/xlink">
    <!-- Generator: Sketch 47.1 (45422) - http://www.bohemiancoding.com/sketch -->
    <title>french-grant-connect-logos_reverse-white-version_vector-(default-for-printing)_447x92</title>
    <desc>Created with Sketch.</desc>
    <defs>
        <polygon id="path-1" points="0.0183892617 27.5628889 0.0183892617 0.248111111 30.8369842 0.248111111 30.8369842 27.5628889"></polygon>
    </defs>
    <g id="Functional-Requirements" stroke="none" stroke-width="1" fill="none" fill-rule="evenodd">
        <g id="1.3.3.-Language-Toggle" transform="translate(-288.000000, -294.000000)">
            <g id="french-grant-connect-logos_reverse-white-version_vector-(default-for-printing)_447x92" transform="translate(288.000000, 294.000000)">
                <path d="M51.7715951,13.6661778 C51.1537159,14.3661778 50.0331969,15.1532889 48.1510559,15.1532889 C45.2633289,15.1532889 43.079604,13.0974667 43.079604,9.96208889 C43.079604,6.82608889 45.3065436,4.77026667 48.1510559,4.77026667 C50.004387,4.77026667 51.124906,5.55737778 51.6710671,6.09746667 L51.0819978,7.23488889 C50.6939843,6.73897778 49.5878702,6.00973333 48.2086756,6.00973333 C46.0678591,6.00973333 44.5164183,7.57026667 44.5164183,9.93284444 C44.5164183,12.2954222 46.082264,13.8553333 48.2086756,13.8553333 C49.5158456,13.8553333 50.5217383,13.3451111 51.1681208,12.6308 L51.7715951,13.6661778" id="Fill-1" fill="#806416"></path>
                <path d="M58.6127069,5.9948 C56.5865168,5.9948 54.9201432,7.46822222 54.9201432,9.93315556 C54.9201432,12.3825333 56.6012282,13.8702667 58.6127069,13.8702667 C60.6382841,13.8702667 62.3049642,12.3825333 62.3049642,9.93315556 C62.3049642,7.46822222 60.6382841,5.9948 58.6127069,5.9948 M58.6127069,15.1532889 C55.8255078,15.1532889 53.4980403,13.1845778 53.4980403,9.96208889 C53.4980403,6.73928889 55.8255078,4.77026667 58.6127069,4.77026667 C61.3995996,4.77026667 63.7270671,6.73928889 63.7270671,9.96208889 C63.7270671,13.1845778 61.3995996,15.1532889 58.6127069,15.1532889" id="Fill-2" fill="#806416"></path>
                <path d="M74.9356286,14.9784444 L73.5711454,14.9784444 L67.853311,6.95737778 C67.853311,6.95737778 67.8818143,8.31382222 67.8818143,9.62608889 L67.8818143,14.9784444 L66.5026197,14.9784444 L66.5026197,4.91586667 L67.9682438,4.91586667 L73.5855503,12.8199556 C73.5855503,12.8199556 73.5711454,11.5804889 73.5711454,10.2532889 L73.5711454,4.91586667 L74.9356286,4.91586667 L74.9356286,14.9784444" id="Fill-3" fill="#806416"></path>
                <path d="M86.7188546,14.9784444 L85.3540649,14.9784444 L79.6365369,6.95737778 C79.6365369,6.95737778 79.6653468,8.31382222 79.6653468,9.62608889 L79.6653468,14.9784444 L78.2861521,14.9784444 L78.2861521,4.91586667 L79.7514698,4.91586667 L85.3684698,12.8199556 C85.3684698,12.8199556 85.3540649,11.5804889 85.3540649,10.2532889 L85.3540649,4.91586667 L86.7188546,4.91586667 L86.7188546,14.9784444" id="Fill-4" fill="#806416"></path>
                <polyline id="Fill-5" fill="#806416" points="95.9882685 14.9784444 90.0693781 14.9784444 90.0693781 4.91586667 95.8733356 4.91586667 95.8733356 6.09746667 91.4626711 6.09746667 91.4626711 9.10155556 95.6290649 9.10155556 95.6290649 10.2825333 91.4626711 10.2825333 91.4626711 13.7825333 95.9882685 13.7825333 95.9882685 14.9784444"></polyline>
                <polyline id="Fill-6" fill="#806416" points="106.103895 14.9784444 104.423116 14.9784444 101.908998 10.7056444 99.4095906 14.9784444 97.742604 14.9784444 101.018651 9.78662222 97.9724698 4.91586667 99.61034 4.91586667 101.908998 8.83897778 104.22206 4.91586667 105.859624 4.91586667 102.814056 9.78662222 106.103895 14.9784444"></polyline>
                <polygon id="Fill-7" fill="#806416" points="108.318575 14.9784444 109.712174 14.9784444 109.712174 4.91586667 108.318575 4.91586667"></polygon>
                <path d="M117.600555,5.9948 C115.574671,5.9948 113.908298,7.46822222 113.908298,9.93315556 C113.908298,12.3825333 115.589076,13.8702667 117.600555,13.8702667 C119.626132,13.8702667 121.292812,12.3825333 121.292812,9.93315556 C121.292812,7.46822222 119.626132,5.9948 117.600555,5.9948 M117.600555,15.1532889 C114.813049,15.1532889 112.485888,13.1845778 112.485888,9.96208889 C112.485888,6.73928889 114.813049,4.77026667 117.600555,4.77026667 C120.387754,4.77026667 122.714915,6.73928889 122.714915,9.96208889 C122.714915,13.1845778 120.387754,15.1532889 117.600555,15.1532889" id="Fill-8" fill="#806416"></path>
                <path d="M133.924089,14.9784444 L132.5593,14.9784444 L126.841159,6.95737778 C126.841159,6.95737778 126.869662,8.31382222 126.869662,9.62608889 L126.869662,14.9784444 L125.490468,14.9784444 L125.490468,4.91586667 L126.956092,4.91586667 L132.573705,12.8199556 C132.573705,12.8199556 132.5593,11.5804889 132.5593,10.2532889 L132.5593,4.91586667 L133.924089,4.91586667 L133.924089,14.9784444" id="Fill-9" fill="#806416"></path>
                <path d="M48.6684072,27.1727556 C48.050528,27.6829778 47.2315928,27.9598667 46.2407181,27.9598667 C44.5020134,27.9598667 43.5108322,26.8224444 43.0366957,26.2689778 L43.8556309,25.3207111 C44.3582707,26.0060889 45.2921387,26.7639556 46.3697494,26.7639556 C47.4473602,26.7639556 48.3095101,26.1376889 48.3095101,25.0727556 C48.3095101,24.0224444 47.2030895,23.6142667 46.7004497,23.4101778 C46.1830984,23.2060889 45.4935011,22.9285778 45.1198926,22.7394222 C44.9044318,22.6376889 44.4876085,22.4183556 44.1284049,22.0244889 C43.7695078,21.6455556 43.4823289,21.0911556 43.4823289,20.2748 C43.4823289,19.4578222 43.8556309,18.7873778 44.3870805,18.3353333 C44.9329351,17.8686667 45.7086555,17.5911556 46.6713333,17.5911556 C48.2947987,17.5911556 49.2430716,18.5972889 49.5161521,18.8891111 L48.78334,19.8516889 C48.2947987,19.3265333 47.5763915,18.7727556 46.5996152,18.7727556 C45.6225324,18.7727556 44.8756219,19.2394222 44.8756219,20.1727556 C44.8756219,21.1060889 45.5511208,21.4557778 46.1542886,21.7043556 L47.9788098,22.4768444 C48.1654609,22.5639556 48.7692416,22.8993333 49.0993289,23.2932 C49.4153177,23.6873778 49.7028031,24.2265333 49.7028031,24.9850222 C49.7028031,25.8598667 49.3147897,26.6326667 48.6684072,27.1727556" id="Fill-10" fill="#806416"></path>
                <path d="M59.9336689,23.6727556 C59.9336689,24.9265333 59.8190425,25.9183556 59.1435436,26.7356444 C58.4683512,27.5224444 57.47717,27.9598667 56.1696935,27.9598667 C54.8481186,27.9598667 53.8566309,27.5224444 53.1958434,26.7356444 C52.5062461,25.9183556 52.3913132,24.9265333 52.3913132,23.6727556 L52.3913132,17.7224444 L53.7993177,17.7224444 L53.7993177,23.5414667 C53.7993177,24.3873778 53.8137226,25.2043556 54.2590492,25.8023111 C54.6611611,26.3557778 55.3078501,26.6911556 56.1696935,26.6911556 C57.0318434,26.6911556 57.663821,26.3557778 58.0806443,25.8023111 C58.5259709,25.2043556 58.5403758,24.3727556 58.5403758,23.5414667 L58.5403758,17.7224444 L59.9336689,17.7224444 L59.9336689,23.6727556" id="Fill-11" fill="#806416"></path>
                <path d="M67.8232752,23.4829778 C67.3347338,23.1476 66.7171611,23.1183556 66.084877,23.1183556 L64.5907494,23.1183556 L64.5907494,26.6326667 L66.084877,26.6326667 C66.7171611,26.6326667 67.3347338,26.6183556 67.8232752,26.2829778 C68.3118166,25.9476 68.5419888,25.5101778 68.5419888,24.8689778 C68.5419888,24.2265333 68.3118166,23.8183556 67.8232752,23.4829778 M67.2342058,19.1227556 C66.8750022,18.9183556 66.5161051,18.8455556 65.8694161,18.8455556 L64.5907494,18.8455556 L64.5907494,22.0397333 L65.7544832,22.0397333 C66.4440805,22.0397333 66.9038121,21.9809333 67.2342058,21.7326667 C67.5645996,21.4850222 67.8952998,21.1353333 67.8952998,20.4064 C67.8952998,19.6911556 67.5790045,19.3122222 67.2342058,19.1227556 M68.9152908,27.1285778 C68.2974116,27.6244889 67.5072864,27.7850222 66.4152707,27.7850222 L63.1971499,27.7850222 L63.1971499,17.7227556 L65.8694161,17.7227556 C66.8032841,17.7227556 67.6078143,17.7952444 68.2256935,18.2043556 C68.8291678,18.5972889 69.2888993,19.1952444 69.2888993,20.2455556 C69.2888993,21.3101778 68.6134004,22.1850222 67.7803669,22.4476 L67.7803669,22.4768444 C69.1166532,22.7540444 69.9784966,23.5993333 69.9784966,24.9265333 C69.9784966,25.9768444 69.5328635,26.6326667 68.9152908,27.1285778" id="Fill-12" fill="#806416"></path>
                <polyline id="Fill-13" fill="#806416" points="79.9509933 17.7227556 76.3016443 27.7993333 75.0664989 27.7993333 71.4174564 17.7227556 72.9115839 17.7227556 75.6984765 25.7438222 78.4853691 17.7227556 79.9509933 17.7227556"></polyline>
                <polyline id="Fill-14" fill="#806416" points="88.1277785 27.7850222 82.2088881 27.7850222 82.2088881 17.7227556 88.0128456 17.7227556 88.0128456 18.9043556 83.6021812 18.9043556 83.6021812 21.9081333 87.7685749 21.9081333 87.7685749 23.0894222 83.6021812 23.0894222 83.6021812 26.5894222 88.1277785 26.5894222 88.1277785 27.7850222"></polyline>
                <path d="M99.4218501,27.7850222 L98.0570604,27.7850222 L92.3389195,19.7639556 C92.3389195,19.7639556 92.3680358,21.1207111 92.3680358,22.4326667 L92.3680358,27.7850222 L90.9888412,27.7850222 L90.9888412,17.7227556 L92.4538523,17.7227556 L98.0711588,25.6265333 C98.0711588,25.6265333 98.0570604,24.3873778 98.0570604,23.0598667 L98.0570604,17.7227556 L99.4218501,17.7227556 L99.4218501,27.7850222" id="Fill-15" fill="#806416"></path>
                <polyline id="Fill-16" fill="#806416" points="108.762369 18.9043556 105.975477 18.9043556 105.975477 27.7850222 104.582183 27.7850222 104.582183 18.9043556 101.780579 18.9043556 101.780579 17.7227556 108.762369 17.7227556 108.762369 18.9043556"></polyline>
                <polygon id="Fill-17" fill="#806416" points="111.121098 27.7850222 112.514085 27.7850222 112.514085 17.7224444 111.121098 17.7224444"></polygon>
                <path d="M120.403078,18.802 C118.376888,18.802 116.710515,20.2748 116.710515,22.7394222 C116.710515,25.1891111 118.391293,26.6768444 120.403078,26.6768444 C122.428349,26.6768444 124.095336,25.1891111 124.095336,22.7394222 C124.095336,20.2748 122.428349,18.802 120.403078,18.802 M120.403078,27.9598667 C117.615573,27.9598667 115.288105,25.9911556 115.288105,22.7683556 C115.288105,19.5455556 117.615573,17.5768444 120.403078,17.5768444 C123.189971,17.5768444 125.517132,19.5455556 125.517132,22.7683556 C125.517132,25.9911556 123.189971,27.9598667 120.403078,27.9598667" id="Fill-18" fill="#806416"></path>
                <path d="M136.726,27.7850222 L135.36121,27.7850222 L129.643376,19.7639556 C129.643376,19.7639556 129.672186,21.1207111 129.672186,22.4326667 L129.672186,27.7850222 L128.292991,27.7850222 L128.292991,17.7227556 L129.758309,17.7227556 L135.375615,25.6265333 C135.375615,25.6265333 135.36121,24.3873778 135.36121,23.0598667 L135.36121,17.7227556 L136.726,17.7227556 L136.726,27.7850222" id="Fill-19" fill="#806416"></path>
                <g id="Group-23">
                    <mask id="mask-2" fill="white">
                        <use xlink:href="#path-1"></use>
                    </mask>
                    <g id="Clip-21"></g>
                    <polyline id="Fill-20" fill="#806416" mask="url(#mask-2)" points="10.6924362 21.0584889 20.5012685 3.81235556 30.3107136 21.0584889 10.6924362 21.0584889"></polyline>
                    <path d="M28.1824631,21.9124889 L24.0693982,21.9124889 L25.2276152,23.9484 L5.60933781,23.9484 L15.41817,6.70195556 L16.6527025,8.87195556 L18.7089284,5.25622222 L16.0814094,0.636844444 C15.7868747,0.118533333 15.0500783,0.118533333 14.7552371,0.636844444 L0.103592841,26.3971556 C-0.191248322,26.9151556 0.177456376,27.5628889 0.766832215,27.5628889 L30.0701208,27.5628889 C30.6594966,27.5628889 31.0278949,26.9151556 30.7333602,26.3971556 L28.1824631,21.9124889" id="Fill-22" fill="#806416" mask="url(#mask-2)"></path>
                </g>
            </g>
        </g>
    </g>
</svg>